PathFileType	4	(X/Y/Z)	D:\TRACE\spotREDO_2-26-24\spot_Both_Motion_1_10-v60.trc
DataRate	CameraRate	NumFrames	NumMarkers	Units	OrigDataRate	OrigDataStartFrame	OrigNumFrames
100.00	100.00	      21	9	mm	100.00	4376	      7000
Frame#	Time	front left toe			Front right toe			aft left toe			aft right toe			Arm			FL body			FR body			AL Body			AR Body			
		X1	Y1	Z1	X2	Y2	Z2	X3	Y3	Z3	X4	Y4	Z4	X5	Y5	Z5	X6	Y6	Z6	X7	Y7	Z7	X8	Y8	Z8	X9	Y9	Z9	

4376	43.750	-253.54681	0.60912	-443.02396	225.46332	8.16462	-510.36975	-300.62329	20.30983	122.70807	152.52057	29.21154	63.68346	-124.83949	675.59186	-798.36206	-147.90619	574.81537	-547.11737	6.98286	578.38214	-537.21454	-211.97090	570.23267	334.83069	-71.64413	574.40729	346.00092	
4377	43.760	-252.43683	0.32858	-442.74353	227.53363	9.09913	-509.86084	-299.55408	20.40786	122.83666	153.84325	29.41661	63.45059	-124.83826	674.58771	-799.86401	-146.83537	571.30621	-547.02899	8.02423	575.00262	-537.22614	-209.86197	571.04504	334.89178	-69.77157	575.58984	345.92685	
4378	43.770	-251.40382	0.17706	-442.62045	227.06664	7.59097	-510.47784	-298.35217	20.70078	122.79739	154.47601	29.29602	63.32500	-124.86950	674.43219	-801.05817	-145.92587	568.28741	-546.83307	8.99592	571.96069	-537.17114	-208.05089	572.00287	335.15598	-67.45278	576.16992	346.14572	
4379	43.780	-250.73431	0.14494	-442.62201	227.90523	7.23704	-510.42078	-297.71024	20.63238	122.89012	155.76419	29.26767	63.47847	-124.23856	675.24347	-801.85944	-144.48235	565.31012	-546.68622	10.24595	568.92316	-536.96149	-206.52821	572.36621	335.43842	-65.90599	576.62335	346.45670	
4380	43.790	-249.74332	-0.26586	-442.54105	228.88615	7.09808	-510.13113	-296.56131	20.41387	122.81745	156.94385	29.14058	63.36607	-123.64897	676.31262	-802.02051	-143.31628	562.88586	-546.35199	11.64293	566.34473	-536.80304	-204.78503	572.57245	335.69305	-64.26533	576.84747	346.48373	
4381	43.800	-248.71988	-0.60259	-442.43988	230.10870	7.37441	-509.68701	-295.85648	20.32577	122.58486	157.89183	29.21651	63.38823	-122.84290	677.95709	-801.91766	-141.74947	560.62079	-546.05658	13.06018	564.37036	-536.58356	-203.69267	572.59778	335.86731	-62.72243	576.53027	346.66473	
4382	43.810	-247.75424	-0.56182	-442.40311	230.52231	6.50207	-510.14688	-295.12775	20.53179	122.51642	158.39005	29.05502	63.38575	-122.25236	679.84766	-801.58435	-139.76413	559.21112	-545.79510	15.01042	562.72461	-536.12488	-202.13887	572.31335	336.30197	-61.71132	576.27087	347.05826	
4383	43.820	-246.64874	-0.34475	-442.50327	231.82033	6.39500	-509.82428	-294.09283	20.34287	122.46919	159.43057	29.13004	63.58282	-121.34740	681.71173	-800.67767	-137.83769	558.30719	-545.42822	17.04830	561.50238	-535.42853	-201.25378	571.87250	336.45615	-60.69398	575.82483	347.35580	
4384	43.830	-245.52336	-0.37499	-442.60583	233.04070	6.15611	-509.63550	-293.47656	20.40550	122.44846	160.30246	29.27906	63.53101	-120.44173	683.21967	-799.81232	-135.74599	557.44464	-544.78204	19.20330	560.54926	-534.67853	-199.69563	571.25562	336.96216	-59.26270	575.09705	348.17194	
4385	43.840	-244.69699	-0.41522	-442.74384	233.92297	5.67204	-509.70435	-292.28586	20.17686	122.39872	161.27000	29.29931	63.71140	-119.56216	684.31940	-798.60742	-133.19830	557.03351	-544.35168	21.41995	560.04462	-534.05511	-198.83592	570.64502	337.27316	-58.29021	574.48743	348.64279	
4386	43.850	-243.43642	-0.51983	-442.84821	236.00497	6.39207	-509.03076	-291.37396	20.13549	122.44876	162.09171	29.06047	63.67088	-118.68153	684.90039	-797.56335	-131.35107	557.03284	-543.59747	23.58844	559.92505	-533.35986	-197.57039	569.79486	337.70151	-56.90965	573.75928	349.59393	
4387	43.860	-242.17882	-0.40538	-442.69962	237.38235	6.11903	-508.64606	-290.75601	20.30166	122.26248	163.04478	29.21679	63.81757	-117.94116	685.45941	-796.44275	-128.92104	557.24939	-542.96136	26.00450	559.88202	-532.39526	-196.31892	569.59180	338.51532	-55.61573	573.05444	350.31876	
4388	43.870	-241.13626	-0.26570	-442.82181	238.67381	5.99920	-508.86362	-289.61005	20.28850	122.27733	164.16454	29.17194	64.04636	-117.17325	685.56293	-795.49512	-126.67464	557.42279	-542.01825	28.12739	559.94708	-531.35480	-194.61902	569.27240	339.51651	-54.21985	572.60620	351.39905	
4389	43.880	-240.37923	-0.10865	-442.73224	238.32796	4.96868	-508.91132	-288.75739	20.40265	122.01022	164.97772	29.09479	64.00574	-116.29336	685.59314	-794.94080	-124.52618	557.87683	-541.08966	30.37859	560.07684	-530.33868	-193.07210	569.14343	340.20932	-52.43797	572.23309	352.28381	
4390	43.890	-239.19289	-0.11232	-442.79996	239.44209	4.68908	-508.93359	-287.44199	20.72049	122.12315	165.76842	29.09343	64.09615	-115.46770	684.56891	-793.71948	-122.62146	557.85162	-539.99335	32.57236	560.02240	-529.26117	-190.99275	568.85675	341.27094	-50.48512	571.85535	353.35437	
4391	43.900	-238.30843	-0.19678	-442.85092	240.52103	4.55515	-508.78635	-286.71967	20.86340	122.24770	167.12628	29.27273	64.12624	-114.79504	683.92371	-793.20874	-120.31078	558.02582	-539.05762	34.50516	559.98279	-528.23151	-189.03790	568.93317	342.36871	-48.52866	571.97308	354.27844	
4392	43.910	-237.29771	-0.46700	-442.80841	241.48511	4.53517	-508.76620	-285.15781	20.85176	122.41085	167.90649	29.13103	63.98022	-113.69261	683.03528	-792.55151	-118.39159	557.94653	-537.89490	36.50657	560.03882	-527.26105	-186.65955	568.81189	343.57239	-46.22991	571.81653	355.62164	
4393	43.920	-236.35248	-0.58046	-442.70459	244.01016	5.67010	-509.23462	-284.41956	21.21395	122.27289	169.17096	28.96507	64.33064	-112.72358	682.26715	-792.07513	-116.35876	557.71564	-536.73181	38.32393	559.97992	-526.11469	-184.39009	568.87146	344.81766	-43.80245	571.80988	356.58743	
4394	43.930	-235.84541	-0.28808	-442.78616	244.03442	5.26029	-508.88425	-283.31158	21.36572	122.44393	170.07204	29.16980	64.29693	-111.64873	681.77618	-792.10468	-114.17963	557.74078	-535.50323	40.52845	559.93408	-524.82080	-181.79028	568.93329	346.07266	-41.36112	571.95514	357.90344	
4395	43.940	-234.36922	-0.98703	-442.61380	243.93559	4.29779	-509.13614	-282.18585	21.62132	122.33302	170.96503	29.21453	64.32899	-110.57755	680.97723	-791.77960	-112.13419	557.30280	-534.04608	42.51506	559.86432	-523.56049	-179.30655	568.95673	347.43979	-38.84227	572.09338	359.22021	
4396	43.950	-233.35208	-1.25070	-442.55963	245.13457	4.15993	-509.01062	-281.28400	21.79281	122.36076	172.23761	29.30567	64.24227	-109.75937	680.54059	-791.45764	-109.92229	556.80878	-532.66724	44.97286	559.17969	-521.97754	-176.70773	568.94373	349.04773	-36.26317	572.15625	360.59677	
